**ABCDEFGHIJKLMNOPQRSTUVWXYZabcdefghijklmnopqrstuvwxyz**************************
**PARASOLID !"#$%&'()*+,-./:;<=>?@[\]^_`{|}~0123456789**************************
**PART1;
MC=;
MC_MODEL=;
MC_ID=unknown;
OS=Windows;
OS_RELEASE=;
FRU=;
APPL=Autodesk Inventor 2025;
SITE=unknown;
USER=unknown;
FORMAT=text;
GUISE=transmit;
KEY=Head Thing (metal);
FILE=C:\Users\mayhe\OneDrive\Documents\GitHub\In-situ-monitoring-of-powder-bed-fusion-additive-manufacturing\system_development\Mithril\v0.2\Model\Step\Head Thing (metal).x_t;
DATE=2025-Feb-07 10:07:23;
**PART2;
SCH=SCH_3600142_36001;
USFLD_SIZE=0;
**PART3;
**END_OF_HEADER*****************************************************************
T51 : TRANSMIT FILE created by modeller version 360014217 SCH_3600142_360010 12
 1 530 2 3 0 0 0 0 0 0 0 1e3 1e-8 0 0 0 1 0 1 1 4 0 5 6 7 0 0 8 9 10 0 0 0 0 0 0
 0 81 1 2 530 11 1 12 0 0 0 13 70 3 0 4 T1 0 0 6 20 1 14 14 13 4 255 0 1 0 15 0
 0 16 0 50 5 428 0 15 17 0 0 +0 .005 4440892098500625e-33 0 1 0 0 0 1 30 6 395 0
 9 18 0 0 +-.1175 .005 -.02 0 0 1 29 7 317 0 10 19 0 -.0425 .005 444089209850062
5e-33 19 8 1 0 1 16 0 20 0 V0 16 9 236 0 ?21 0 22 6 0 0 1 18 10 232 0 23 0 24 7
 ?1 17 23 0 25 23 23 10 26 22 0 26 +18 24 227 0 27 10 28 19 ?1 17 27 0 29 27 27
 24 30 31 0 30 +18 28 222 0 32 24 33 34 ?1 29 19 316 0 24 34 7 -.100121 .005 .01
1 29 34 315 0 28 35 19 -.080121 .005 .011 29 35 314 0 33 36 34 -.080121 .005 -.0
11 18 33 217 0 37 28 38 35 ?1 29 36 313 0 38 39 35 -.100121 .005 -.011 18 38 212
 0 40 33 41 36 ?1 29 39 312 0 41 42 36 .076879 .005 .011 18 41 207 0 43 38 44 39
 ?1 29 42 311 0 44 45 39 .096879 .005 .011 18 44 202 0 46 41 47 42 ?1 29 45 310
 0 47 48 42 .096879 .005 -.011 18 47 197 0 49 44 50 45 ?1 29 48 309 0 50 51 45 .
076879 .005 -.011 18 50 192 0 52 47 53 48 ?1 29 51 308 0 53 54 48 -.001621 .005
 .051 18 53 187 0 55 50 56 51 ?1 29 54 307 0 56 57 51 .0425462955930064 .005 .02
55 18 56 182 0 58 53 59 54 ?1 29 57 306 0 59 60 54 .0425462955930064 .005 -.0255
 18 59 177 0 61 56 62 57 ?1 29 60 305 0 62 63 57 -.001621 .005 -.051 18 62 172 0
 64 59 65 60 ?1 29 63 304 0 65 66 60 -.0457882955930064 .005 -.0255 18 65 167 0
 67 62 68 63 ?1 29 66 303 0 68 69 63 -.0457882955930064 .005 .0255 18 68 162 0 7
0 65 71 66 ?1 29 69 302 0 71 72 66 -.1175 .005 -.02 18 71 157 0 73 68 74 69 ?1 2
9 72 301 0 74 75 69 -.1125 .005 -.025 18 74 152 0 76 71 77 72 ?1 29 75 300 0 77
 78 72 -.0587877538267963 .005 -.025 18 77 147 0 79 74 80 75 ?1 29 78 299 0 80 8
1 75 .1125 .005 -.025 18 80 139 0 82 77 83 78 ?1 29 81 298 0 83 84 78 -.05433413
6112645 .005 -.02772727272727275 18 83 134 0 85 80 86 81 ?1 29 84 297 0 86 87 81
 .0587877538267963 .005 -.025 18 86 129 0 88 83 89 84 ?1 29 87 296 0 89 90 84 .0
54334136112645 .005 -.02772727272727275 18 89 127 0 91 86 92 87 ?1 29 90 295 0 9
2 93 87 .1175 .005 -.02 18 92 122 0 94 89 95 90 ?1 29 93 294 0 95 96 90 .1175 .0
05 .02 18 95 117 0 97 92 98 93 ?1 29 96 293 0 98 99 93 .1125 .005 .025 18 98 112
 0 100 95 101 96 ?1 29 99 292 0 101 102 96 .0587877538267963 .005 .025 18 101 10
7 0 103 98 104 99 ?1 29 102 291 0 104 105 99 .0543341361126451 .005 .02772727272
72727 18 104 102 0 106 101 107 102 ?1 29 105 290 0 107 108 102 -.054334136112645
1 .005 .02772727272727275 18 107 97 0 109 104 110 105 ?1 29 108 289 0 110 111 10
5 -.0425 0 520474889637625e-32 18 110 93 0 112 107 113 108 ?1 29 111 288 0 113 1
14 108 -.096879 0 .011 18 113 90 0 115 110 116 111 ?1 29 114 287 0 116 117 111 -
.076879 0 .011 18 116 87 0 118 113 119 114 ?1 29 117 286 0 119 120 114 -.076879
 0 -.011 18 119 84 0 121 116 122 117 ?1 29 120 285 0 122 123 117 -.096879 0 -.01
1 18 122 81 0 124 119 125 120 ?1 29 123 284 0 125 126 120 .080121 0 .011 18 125
 78 0 127 122 128 123 ?1 29 126 283 0 128 129 123 .100121 0 .011 18 128 75 0 130
 125 131 126 ?1 29 129 282 0 131 132 126 .100121 0 -.011 18 131 72 0 133 128 134
 129 ?1 29 132 281 0 134 135 129 .080121 0 -.011 18 134 69 0 136 131 137 132 ?1
 29 135 280 0 137 138 132 .001621 0 .051 18 137 66 0 139 134 140 135 ?1 29 138 2
79 0 140 141 135 .0457882955930064 0 .0255 18 140 63 0 142 137 143 138 ?1 29 141
 278 0 143 144 138 .0457882955930064 0 -.0255 18 143 60 0 145 140 146 141 ?1 29
 144 277 0 146 147 141 .001621 0 -.051 18 146 57 0 148 143 149 144 ?1 29 147 276
 0 149 150 144 -.0425462955930064 0 -.0255 18 149 54 0 151 146 152 147 ?1 29 150
 275 0 152 153 147 -.0425462955930064 0 .0255 18 152 51 0 154 149 155 150 ?1 29
 153 274 0 155 156 150 -.0543341361126451 0 .02772727272727275 18 155 47 0 157 1
52 158 153 ?1 29 156 273 0 158 159 153 .0543341361126451 0 .0277272727272727 18
 158 45 0 160 155 161 156 ?1 29 159 272 0 161 162 156 .0587877538267963 0 .025 1
8 161 43 0 163 158 164 159 ?1 29 162 271 0 164 165 159 .1125 0 .025 18 164 41 0
 166 161 167 162 ?1 29 165 270 0 167 168 162 .1175 0 .02 18 167 39 0 169 164 170
 165 ?1 29 168 269 0 170 171 165 .1175 0 -.02 18 170 37 0 172 167 173 168 ?1 29
 171 268 0 173 174 168 .1125 0 -.025 18 173 35 0 175 170 176 171 ?1 29 174 267 0
 176 177 171 .0587877538267963 0 -.025 18 176 33 0 178 173 179 174 ?1 29 177 266
 0 179 180 174 .054334136112645 0 -.02772727272727275 18 179 31 0 181 176 182 17
7 ?1 29 180 265 0 182 183 177 -.054334136112645 0 -.02772727272727275 18 182 29
 0 184 179 185 180 ?1 29 183 264 0 185 186 180 -.0587877538267963 0 -.025 18 185
 27 0 187 182 188 183 ?1 29 186 263 0 188 189 183 -.1125 0 -.025 18 188 25 0 190
 185 191 186 ?1 29 189 262 0 191 192 186 -.1175 0 -.02 18 191 23 0 193 188 194 1
89 ?1 29 192 261 0 194 195 189 -.0587877538267963 .005 .025 18 194 18 0 196 191
 197 192 ?1 29 195 260 0 197 198 192 -.0587877538267963 0 .025 18 197 16 0 199 1
94 200 195 ?1 29 198 259 0 200 201 195 -.1125 0 .025 18 200 11 0 202 197 203 198
 ?1 29 201 258 0 203 204 198 -.1175 0 .02 18 203 9 0 205 200 206 201 ?1 29 204 2
57 0 206 207 201 -.1175 .005 .02 18 206 7 0 21 203 208 204 ?1 29 207 256 0 208 0
 204 -.1125 .005 .025 18 208 6 0 209 206 0 207 ?1 17 209 0 210 211 212 208 213 2
14 0 215 -15 210 14 0 211 216 0 17 211 0 210 217 209 200 215 218 0 219 -17 212 0
 210 209 217 194 220 221 0 0 -17 213 0 222 223 224 194 209 214 0 212 +16 214 19
 0 ?213 225 221 226 0 0 1 17 215 0 227 228 219 208 211 218 0 224 +15 227 4 0 228
 229 0 17 228 0 227 230 215 206 224 231 0 0 +17 219 0 227 215 230 200 232 233 0
 0 +16 218 12 0 ?215 234 233 235 0 0 1 17 224 0 222 213 21 208 228 231 0 0 -15 2
22 238 0 224 15 0 17 21 0 222 224 236 206 73 9 0 237 +16 231 5 0 ?228 238 0 239
 0 0 1 16 238 8 0 ?230 233 231 240 0 0 1 31 239 318 0 231 0 240 0 +-.1125 .005 .
02 0 -1 0 -.707106781186548 0 .707106781186548 .005 30 240 319 0 238 239 241 0 +
-.1175 .005 .02 0 -1 0 31 241 320 0 233 240 235 0 +-.1125 0 .02 0 1 0 -.70710678
1186548 0 .707106781186548 .005 16 233 10 0 ?219 218 238 241 0 0 1 30 235 321 0
 218 241 242 0 +-.1125 0 .025 0 1 0 30 242 322 0 234 235 243 0 +-.1125 0 .025 1
 0 661434576268549e-31 16 234 15 0 ?217 221 218 242 0 0 1 30 243 323 0 221 242 2
26 0 +-.0587877538267963 .005 .025 0 -1 0 16 221 17 0 ?220 214 234 243 0 0 1 30
 226 324 0 214 243 244 0 +-.1125 .005 .025 1 0 661434576268549e-31 30 244 325 0
 225 226 245 0 +-.1175 0 -.02 0 0 1 16 225 22 0 ?205 246 214 244 0 0 1 31 245 32
6 0 246 244 247 0 +-.1125 0 -.02 0 1 0 -.707106781186548 0 -.707106781186548 .00
5 16 246 24 0 ?248 249 225 245 0 0 1 30 247 327 0 249 245 250 0 +-.0587877538267
963 0 -.025 -1 0 529147661014839e-30 16 249 26 0 ?251 252 246 247 0 0 1 31 250 3
28 0 252 247 253 0 +-.0587877538267963 0 -.03 0 -1 0 .522232967867094 0 .8528028
65422441 .005 16 252 28 0 ?254 255 249 250 0 0 1 31 253 329 0 255 250 256 0 +0 0
 0 0 1 0 .912159196278266 0 -.4098360655737705 .061 16 255 30 0 ?257 258 252 253
 0 0 1 31 256 330 0 258 253 259 0 +.0587877538267963 0 -.03 0 -1 0 -.52223296786
7094 0 .852802865422441 .005 16 258 32 0 ?260 261 255 256 0 0 1 30 259 331 0 261
 256 262 0 +.1125 0 -.025 -1 0 -661434576268549e-31 16 261 34 0 ?263 264 258 259
 0 0 1 31 262 332 0 264 259 265 0 +.1125 0 -.02 0 1 0 .707106781186548 0 -.70710
6781186548 .005 16 264 36 0 ?266 267 261 262 0 0 1 30 265 333 0 267 262 268 0 +.
1175 0 .02 0 0 -1 16 267 38 0 ?269 270 264 265 0 0 1 31 268 334 0 270 265 271 0
 +.1125 0 .02 0 1 0 .707106781186548 0 .707106781186548 .005 16 270 40 0 ?272 27
3 267 268 0 0 1 30 271 335 0 273 268 274 0 +.0587877538267963 0 .025 1 0 1322869
1525371e-29 16 273 42 0 ?275 276 270 271 0 0 1 31 274 336 0 276 271 277 0 +.0587
877538267963 0 .03 0 -1 0 -.522232967867096 0 -.85280286542244 .005 16 276 44 0
 ?278 279 273 274 0 0 1 31 277 337 0 279 274 280 0 +0 0 0 0 1 0 -.91215919627826
6 0 .4098360655737705 .061 16 279 46 0 ?281 282 276 277 0 0 1 31 280 338 0 282 2
77 283 0 +-.0587877538267963 0 .03 0 -1 0 .522232967867094 0 -.852802865422441 .
005 16 282 48 0 ?284 285 279 280 0 0 1 31 283 339 0 285 280 286 0 +-.04416729559
30064 0 .0255 0 1 0 1 0 0 .001621 16 285 50 0 ?154 287 282 283 0 0 1 31 286 340
 0 287 283 288 0 +-.0441672955930064 0 -.0255 0 1 0 1 0 0 .001621 16 287 53 0 ?1
51 289 285 286 0 0 1 31 288 341 0 289 286 290 0 +-62456986756515e-31 0 -.051 0 1
 0 1 0 0 .001621 16 289 56 0 ?148 291 287 288 0 0 1 31 290 342 0 291 288 292 0 +
.0441672955930064 0 -.0255 0 1 0 1 0 0 .001621 16 291 59 0 ?145 293 289 290 0 0
 1 31 292 343 0 293 290 294 0 +.0441672955930064 0 .0255 0 1 0 1 0 0 .001621 16
 293 62 0 ?142 295 291 292 0 0 1 31 294 344 0 295 292 296 0 +0 0 .051 0 1 0 1 0
 0 .001621 16 295 65 0 ?139 297 293 294 0 0 1 31 296 345 0 297 294 298 0 +.0785
 0 -.011 0 1 0 1 0 0 .001621 16 297 68 0 ?136 299 295 296 0 0 1 31 298 346 0 299
 296 300 0 +.0985 0 -.011 0 1 0 1 0 0 .001621 16 299 71 0 ?133 301 297 298 0 0 1
 31 300 347 0 301 298 302 0 +.0985 0 .011 0 1 0 1 0 0 .001621 16 301 74 0 ?130 3
03 299 300 0 0 1 31 302 348 0 303 300 304 0 +.0785 0 .011 0 1 0 1 0 0 .001621 16
 303 77 0 ?127 305 301 302 0 0 1 31 304 349 0 305 302 306 0 +-.0985 0 -.011 0 1
 0 1 0 0 .001621 16 305 80 0 ?124 307 303 304 0 0 1 31 306 350 0 307 304 308 0 +
-.0785 0 -.011 0 1 0 1 0 0 .001621 16 307 83 0 ?121 309 305 306 0 0 1 31 308 351
 0 309 306 310 0 +-.0785 0 .011 0 1 0 1 0 0 .001621 16 309 86 0 ?118 311 307 308
 0 0 1 31 310 352 0 311 308 312 0 +-.0985 0 .011 0 1 0 1 0 0 .001621 16 311 89 0
 ?115 313 309 310 0 0 1 31 312 353 0 313 310 314 0 +0 0 0 0 -1 0 1 0 0 .0425 16
 313 92 0 ?112 315 311 312 0 0 1 30 314 354 0 315 312 316 0 +-.0543341361126451
 0 .02772727272727275 0 1 0 16 315 96 0 ?317 318 313 314 0 0 1 31 316 355 0 318
 314 319 0 +-.0587877538267963 .005 .03 0 1 0 .522232967867094 0 -.8528028654224
41 .005 16 318 98 0 ?196 320 315 316 0 0 1 30 319 356 0 320 316 321 0 +.05433413
61126451 .005 .0277272727272727 0 -1 0 16 320 101 0 ?160 322 318 319 0 0 1 31 32
1 357 0 322 319 323 0 +0 .005 0 0 1 0 -.912159196278266 0 .4098360655737705 .061
 16 322 103 0 ?324 325 320 321 0 0 1 30 323 358 0 325 321 326 0 +.05878775382679
63 0 .025 0 1 0 16 325 106 0 ?327 328 322 323 0 0 1 31 326 359 0 328 323 329 0 +
.0587877538267963 .005 .03 0 1 0 -.522232967867096 0 -.85280286542244 .005 16 32
8 108 0 ?106 330 325 326 0 0 1 30 329 360 0 330 326 331 0 +.1125 .005 .025 0 -1
 0 16 330 111 0 ?166 332 328 329 0 0 1 30 331 361 0 332 329 333 0 +.058787753826
7963 .005 .025 1 0 13228691525371e-29 16 332 113 0 ?334 335 330 331 0 0 1 31 333
 362 0 335 331 336 0 +.1125 .005 .02 0 -1 0 .707106781186548 0 .707106781186548
 .005 16 335 116 0 ?100 337 332 333 0 0 1 30 336 363 0 337 333 338 0 +.1175 0 .0
2 0 1 0 16 337 118 0 ?339 340 335 336 0 0 1 30 338 364 0 340 336 341 0 +.1175 .0
05 -.02 0 -1 0 16 340 121 0 ?172 342 337 338 0 0 1 30 341 365 0 342 338 343 0 +.
1175 .005 .02 0 0 -1 16 342 123 0 ?344 345 340 341 0 0 1 30 343 366 0 345 341 34
6 0 +.054334136112645 0 -.02772727272727275 0 1 0 16 345 126 0 ?347 348 342 343
 0 0 1 31 346 367 0 348 343 349 0 +.0587877538267963 .005 -.03 0 1 0 -.522232967
867094 0 .852802865422441 .005 16 348 128 0 ?350 351 345 346 0 0 1 30 349 368 0
 351 346 352 0 +.0587877538267963 .005 -.025 0 -1 0 16 351 130 0 ?178 353 348 34
9 0 0 1 30 352 369 0 353 349 354 0 +-.054334136112645 .005 -.02772727272727275 0
 -1 0 16 353 133 0 ?184 355 351 352 0 0 1 31 354 370 0 355 352 356 0 +0 .005 0 0
 1 0 .912159196278266 0 -.4098360655737705 .061 16 355 135 0 ?357 358 353 354 0
 0 1 31 356 371 0 358 354 359 0 +.1125 .005 -.02 0 -1 0 .707106781186548 0 -.707
106781186548 .005 16 358 138 0 ?94 360 355 356 0 0 1 30 359 372 0 360 356 361 0
 +.1125 0 -.025 0 1 0 16 360 140 0 ?362 363 358 359 0 0 1 30 361 373 0 363 359 3
64 0 +.1125 .005 -.025 -1 0 -661434576268549e-31 16 363 143 0 ?88 365 360 361 0
 0 1 30 364 374 0 365 361 366 0 +-.0587877538267963 0 -.025 0 1 0 16 365 146 0 ?
367 368 363 364 0 0 1 31 366 375 0 368 364 369 0 +-.0587877538267963 .005 -.03 0
 1 0 .522232967867094 0 .852802865422441 .005 16 368 148 0 ?85 370 365 366 0 0 1
 30 369 376 0 370 366 371 0 +-.1125 .005 -.025 0 -1 0 16 370 151 0 ?190 372 368
 369 0 0 1 30 371 377 0 372 369 373 0 +-.0587877538267963 .005 -.025 -1 0 529147
661014839e-30 16 372 153 0 ?374 375 370 371 0 0 1 31 373 378 0 375 371 376 0 +-.
1125 .005 -.02 0 -1 0 -.707106781186548 0 -.707106781186548 .005 16 375 156 0 ?7
6 377 372 373 0 0 1 30 376 379 0 377 373 378 0 +-.1175 0 -.02 0 1 0 16 377 158 0
 ?379 380 375 376 0 0 1 31 378 380 0 380 376 381 0 +-.0441672955930064 .005 .025
5 0 -1 0 1 0 0 .001621 16 380 161 0 ?70 382 377 378 0 0 1 31 381 381 0 382 378 3
83 0 +-.0441672955930064 .005 -.0255 0 -1 0 1 0 0 .001621 16 382 166 0 ?67 384 3
80 381 0 0 1 31 383 382 0 384 381 385 0 +-62456986756515e-31 .005 -.051 0 -1 0 1
 0 0 .001621 16 384 171 0 ?64 386 382 383 0 0 1 31 385 383 0 386 383 387 0 +.044
1672955930064 .005 -.0255 0 -1 0 1 0 0 .001621 16 386 176 0 ?61 388 384 385 0 0
 1 31 387 384 0 388 385 389 0 +.0441672955930064 .005 .0255 0 -1 0 1 0 0 .001621
 16 388 181 0 ?58 390 386 387 0 0 1 31 389 385 0 390 387 391 0 +0 .005 .051 0 -1
 0 1 0 0 .001621 16 390 186 0 ?55 392 388 389 0 0 1 31 391 386 0 392 389 393 0 +
.0785 .005 -.011 0 -1 0 1 0 0 .001621 16 392 191 0 ?52 394 390 391 0 0 1 31 393
 387 0 394 391 395 0 +.0985 .005 -.011 0 -1 0 1 0 0 .001621 16 394 196 0 ?49 396
 392 393 0 0 1 31 395 388 0 396 393 397 0 +.0985 .005 .011 0 -1 0 1 0 0 .001621
 16 396 201 0 ?46 398 394 395 0 0 1 31 397 389 0 398 395 399 0 +.0785 .005 .011
 0 -1 0 1 0 0 .001621 16 398 206 0 ?43 400 396 397 0 0 1 31 399 390 0 400 397 40
1 0 +-.0985 .005 -.011 0 -1 0 1 0 0 .001621 16 400 211 0 ?40 402 398 399 0 0 1 3
1 401 391 0 402 399 403 0 +-.0785 .005 -.011 0 -1 0 1 0 0 .001621 16 402 216 0 ?
37 404 400 401 0 0 1 31 403 392 0 404 401 405 0 +-.0785 .005 .011 0 -1 0 1 0 0 .
001621 16 404 221 0 ?32 31 402 403 0 0 1 31 405 393 0 31 403 18 0 +-.0985 .005 .
011 0 -1 0 1 0 0 .001621 16 31 226 0 ?27 22 404 405 0 0 1 31 18 394 0 22 405 6 0
 +0 .005 0 0 -1 0 1 0 0 .0425 16 22 231 0 ?23 9 31 18 0 0 1 17 32 0 406 32 32 28
 407 404 0 407 +15 406 251 0 32 15 408 17 407 0 409 407 407 28 32 404 0 0 -15 40
9 220 0 407 410 0 14 410 219 411 ?412 413 414 4 415 -0 0 412 413 20 81 1 411 517
 416 410 417 0 418 419 420 14 412 214 418 ?421 410 422 4 423 -0 0 421 410 20 14
 413 224 419 ?410 424 425 4 426 -0 0 410 424 20 15 414 223 0 427 410 409 51 415
 424 0 410 423 426 0 +-.0785 .0059 .011 0 1 0 .001621 1 0 0 13 20 2 0 0 0 0 0 0
 8 15 14 15 237 428 ?429 0 25 4 5 +0 0 429 0 20 81 1 428 529 416 15 430 0 431 0
 432 14 429 234 431 ?424 15 433 4 17 +0 0 424 15 20 15 25 253 0 23 15 29 15 29 2
52 0 27 15 406 81 1 431 526 416 429 434 0 435 428 436 14 424 229 435 ?413 429 43
7 4 438 -0 0 413 429 20 15 433 235 0 237 429 0 50 17 427 0 429 438 5 0 +-.1175 0
 -.025 -1 0 0 0 0 1 51 438 426 0 424 426 17 0 +0 0 0 0 -1 0 .0425 1 0 0 51 426 4
25 0 413 415 438 0 +-.0985 .0059 .011 0 1 0 .001621 1 0 0 17 237 0 433 73 205 20
6 230 238 0 228 -17 73 0 433 193 237 71 21 9 0 379 -17 205 0 433 237 193 203 439
 225 0 232 +17 230 0 227 219 228 203 237 238 0 0 +17 193 0 433 205 73 191 379 37
7 0 248 -17 439 0 440 441 232 191 205 225 0 0 -17 232 0 440 439 202 203 219 233
 0 230 -15 440 21 0 232 442 0 17 202 0 440 232 199 200 217 234 0 211 -17 199 0 4
40 202 443 197 284 282 0 220 -17 217 0 210 212 211 197 202 234 0 0 +17 443 0 440
 199 444 155 281 279 0 0 -17 284 0 445 317 220 155 199 282 0 443 +17 220 0 445 2
84 196 197 212 221 0 217 +15 445 95 0 284 446 0 17 196 0 445 220 317 194 223 318
 0 213 +17 317 0 445 196 284 107 157 315 0 0 +17 223 0 222 324 213 107 196 318 0
 317 -17 324 0 222 447 223 104 109 322 0 448 +17 447 0 222 334 324 101 106 328 0
 327 -17 109 0 449 157 448 107 324 322 0 223 -17 448 0 449 109 281 104 160 320 0
 0 -15 449 100 0 157 450 0 17 281 0 449 448 157 158 443 279 0 444 +17 160 0 451
 278 106 158 448 320 0 281 +15 451 105 0 278 452 0 17 278 0 451 327 160 161 444
 276 0 453 +17 106 0 451 160 327 104 447 328 0 324 +17 327 0 451 106 278 101 163
 325 0 0 +17 163 0 454 275 103 161 327 325 0 278 -15 454 110 0 163 455 0 17 275
 0 454 456 163 164 453 273 0 457 +17 103 0 454 163 456 101 334 332 0 447 -17 456
 0 454 103 275 98 166 330 0 0 -17 334 0 222 458 447 98 103 332 0 456 +17 458 0 2
22 344 334 95 100 335 0 0 -17 344 0 222 459 458 92 97 342 0 460 +17 100 0 461 16
6 339 98 458 335 0 334 +15 461 115 0 100 462 0 17 166 0 461 272 100 164 456 330
 0 275 +17 339 0 461 100 272 95 169 337 0 458 +17 272 0 461 339 166 167 457 270
 0 463 +17 169 0 464 269 97 167 339 337 0 272 -15 464 120 0 169 465 0 17 269 0 4
64 460 169 170 463 267 0 466 +17 97 0 464 169 460 95 344 342 0 339 -17 460 0 464
 97 269 92 172 340 0 0 -17 172 0 467 266 94 170 460 340 0 269 +15 467 137 0 94 4
68 0 17 266 0 467 362 172 173 466 264 0 469 +17 94 0 467 172 362 92 459 358 0 34
4 +17 362 0 467 94 266 80 175 360 0 459 +17 459 0 222 88 344 80 94 358 0 0 -17 8
8 0 222 470 459 86 82 363 0 471 +17 470 0 222 357 88 89 350 348 0 347 -17 82 0 4
72 175 471 80 88 363 0 362 -17 471 0 472 82 263 86 178 351 0 350 -15 472 142 0 4
71 473 0 17 263 0 472 471 175 176 469 261 0 474 +17 178 0 475 260 350 176 471 35
1 0 263 +17 350 0 475 178 347 86 470 348 0 0 +15 475 125 0 260 476 0 17 347 0 47
5 350 260 89 181 345 0 0 +17 260 0 475 347 178 179 474 258 0 477 +17 181 0 478 2
57 91 179 347 345 0 260 -15 478 132 0 181 479 0 17 257 0 478 480 181 182 477 255
 0 481 +17 91 0 478 181 480 89 357 355 0 470 -17 480 0 478 91 257 83 184 353 0 0
 -17 357 0 222 482 470 83 91 355 0 480 +17 482 0 222 374 357 77 85 368 0 367 -17
 374 0 222 236 482 74 79 372 0 483 +17 85 0 484 184 367 83 482 368 0 357 +17 367
 0 484 85 254 77 187 365 0 0 +15 484 145 0 254 485 0 17 254 0 484 367 184 185 48
1 252 0 486 +17 187 0 487 251 79 185 367 365 0 254 -15 487 150 0 187 488 0 17 25
1 0 487 483 187 188 486 249 0 441 +17 79 0 487 187 483 77 374 372 0 482 -17 483
 0 487 79 251 74 190 370 0 0 -17 190 0 489 248 76 188 483 370 0 251 +15 489 155
 0 76 490 0 17 248 0 489 379 190 191 441 246 0 439 +17 76 0 489 190 379 74 236 3
75 0 374 +17 379 0 489 76 248 71 193 377 0 236 +17 236 0 222 21 374 71 76 375 0
 0 -17 441 0 440 486 439 188 248 246 0 0 -17 486 0 440 481 441 185 251 249 0 0 -
17 481 0 440 477 486 182 254 252 0 0 -17 477 0 440 474 481 179 257 255 0 0 -17 4
74 0 440 469 477 176 260 258 0 0 -17 469 0 440 466 474 173 263 261 0 0 -17 466 0
 440 463 469 170 266 264 0 0 -17 463 0 440 457 466 167 269 267 0 0 -17 457 0 440
 453 463 164 272 270 0 0 -17 453 0 440 444 457 161 275 273 0 0 -17 444 0 440 443
 453 158 278 276 0 0 -14 490 154 491 ?488 492 489 4 493 +0 0 488 492 20 81 1 491
 478 416 490 494 0 495 496 497 14 488 149 495 ?485 490 487 4 498 +0 0 485 490 20
 14 492 159 496 ?490 499 500 4 501 -0 0 490 499 20 51 493 411 0 490 498 501 0 +-
.1125 0 -.02 0 1 0 .005 -.707106781186548 0 -.707106781186548 50 498 410 0 488 5
02 493 0 +-.0556417109729742 0 -.025 -430748295986047e-30 0 -1 -1 0 430748295986
047e-30 51 501 412 0 492 493 503 0 +-.0441672955930064 .0059 .0255 0 1 0 .001621
 1 0 0 51 503 413 0 499 501 504 0 +-.0441672955930064 .0059 -.0255 0 1 0 .001621
 1 0 0 14 499 164 505 ?492 506 507 4 503 -0 0 492 506 20 51 504 414 0 506 503 50
8 0 +-62456986756515e-31 .0059 -.051 0 1 0 .001621 1 0 0 14 506 169 509 ?499 510
 511 4 504 -0 0 499 510 20 51 508 415 0 510 504 512 0 +.0441672955930064 .0059 -
.0255 0 1 0 .001621 1 0 0 14 510 174 513 ?506 514 515 4 508 -0 0 506 514 20 51 5
12 416 0 514 508 516 0 +.0441672955930064 .0059 .0255 0 1 0 .001621 1 0 0 14 514
 179 517 ?510 518 519 4 512 -0 0 510 518 20 51 516 417 0 518 512 520 0 +0 .0059
 .051 0 1 0 .001621 1 0 0 14 518 184 521 ?514 522 523 4 516 -0 0 514 522 20 51 5
20 418 0 522 516 524 0 +.0785 .0059 -.011 0 1 0 .001621 1 0 0 14 522 189 525 ?51
8 526 527 4 520 -0 0 518 526 20 51 524 419 0 526 520 528 0 +.0985 .0059 -.011 0
 1 0 .001621 1 0 0 14 526 194 529 ?522 530 531 4 524 -0 0 522 530 20 51 528 420
 0 530 524 532 0 +.0985 .0059 .011 0 1 0 .001621 1 0 0 14 530 199 533 ?526 534 5
35 4 528 -0 0 526 534 20 51 532 421 0 534 528 536 0 +.0785 .0059 .011 0 1 0 .001
621 1 0 0 14 534 204 537 ?530 421 538 4 532 -0 0 530 421 20 51 536 422 0 421 532
 423 0 +-.0985 .0059 -.011 0 1 0 .001621 1 0 0 14 421 209 539 ?534 412 540 4 536
 -0 0 534 412 20 51 423 423 0 412 536 415 0 +-.0785 .0059 -.011 0 1 0 .001621 1
 0 0 81 1 539 511 416 421 541 0 537 418 542 15 540 213 0 543 421 544 17 543 0 54
0 543 543 122 124 305 0 0 -15 544 210 0 545 421 0 17 545 0 544 545 545 38 40 400
 0 0 -17 40 0 546 40 40 38 545 400 0 545 +15 546 249 0 40 15 547 15 547 248 0 43
 15 548 17 43 0 547 43 43 41 549 398 0 549 +15 548 247 0 46 15 550 17 46 0 548 4
6 46 44 551 396 0 551 +15 550 246 0 49 15 552 17 49 0 550 49 49 47 553 394 0 553
 +15 552 245 0 52 15 554 17 52 0 552 52 52 50 555 392 0 555 +15 554 244 0 55 15
 556 17 55 0 554 55 55 53 557 390 0 557 +15 556 243 0 58 15 558 17 58 0 556 58 5
8 56 559 388 0 559 +15 558 242 0 61 15 560 17 61 0 558 61 61 59 561 386 0 561 +1
5 560 241 0 64 15 562 17 64 0 560 64 64 62 563 384 0 563 +15 562 240 0 67 15 564
 17 67 0 562 67 67 65 565 382 0 565 +15 564 239 0 70 15 222 17 70 0 564 70 70 68
 566 380 0 566 +17 566 0 567 566 566 68 70 380 0 0 -15 567 160 0 566 492 0 17 56
5 0 568 565 565 65 67 382 0 0 -15 568 165 0 565 499 0 17 563 0 569 563 563 62 64
 384 0 0 -15 569 170 0 563 506 0 17 561 0 570 561 561 59 61 386 0 0 -15 570 175
 0 561 510 0 17 559 0 571 559 559 56 58 388 0 0 -15 571 180 0 559 514 0 17 557 0
 572 557 557 53 55 390 0 0 -15 572 185 0 557 518 0 17 555 0 573 555 555 50 52 39
2 0 0 -15 573 190 0 555 522 0 17 553 0 574 553 553 47 49 394 0 0 -15 574 195 0 5
53 526 0 17 551 0 575 551 551 44 46 396 0 0 -15 575 200 0 551 530 0 17 549 0 576
 549 549 41 43 398 0 0 -15 576 205 0 549 534 0 17 124 0 577 124 124 122 543 305
 0 543 +15 577 79 0 124 442 578 14 442 20 579 ?216 446 580 4 581 +0 0 216 446 20
 15 578 76 0 127 442 582 17 127 0 578 127 127 125 583 303 0 583 +15 582 73 0 130
 442 584 17 130 0 582 130 130 128 585 301 0 585 +15 584 70 0 133 442 586 17 133
 0 584 133 133 131 587 299 0 587 +15 586 67 0 136 442 588 17 136 0 586 136 136 1
34 589 297 0 589 +15 588 64 0 139 442 590 17 139 0 588 139 139 137 591 295 0 591
 +15 590 61 0 142 442 592 17 142 0 590 142 142 140 593 293 0 593 +15 592 58 0 14
5 442 594 17 145 0 592 145 145 143 595 291 0 595 +15 594 55 0 148 442 596 17 148
 0 594 148 148 146 597 289 0 597 +15 596 52 0 151 442 598 17 151 0 596 151 151 1
49 599 287 0 599 +15 598 49 0 154 442 440 17 154 0 598 154 154 152 600 285 0 600
 +17 600 0 500 600 600 152 154 285 0 0 -15 500 163 0 600 492 567 17 599 0 507 59
9 599 149 151 287 0 0 -15 507 168 0 599 499 568 17 597 0 511 597 597 146 148 289
 0 0 -15 511 173 0 597 506 569 17 595 0 515 595 595 143 145 291 0 0 -15 515 178
 0 595 510 570 17 593 0 519 593 593 140 142 293 0 0 -15 519 183 0 593 514 571 17
 591 0 523 591 591 137 139 295 0 0 -15 523 188 0 591 518 572 17 589 0 527 589 58
9 134 136 297 0 0 -15 527 193 0 589 522 573 17 587 0 531 587 587 131 133 299 0 0
 -15 531 198 0 587 526 574 17 585 0 535 585 585 128 130 301 0 0 -15 535 203 0 58
5 530 575 17 583 0 538 583 583 125 127 303 0 0 -15 538 208 0 583 534 576 81 1 57
9 439 416 442 601 0 602 603 604 14 216 13 602 ?229 442 210 4 605 +0 0 229 442 20
 14 446 94 603 ?442 450 445 4 606 -0 0 442 450 20 15 580 91 0 607 442 608 50 581
 398 0 442 605 606 0 +0 0 4440892098500625e-33 0 -1 0 0 0 1 50 605 397 0 216 609
 581 0 +-.1175 0 .025 -717913826643412e-31 0 1 1 0 717913826643412e-31 51 606 39
9 0 446 581 610 0 +-.0587877538267963 0 .03 0 -1 0 .005 .522232967867094 0 -.852
802865422442 51 610 400 0 450 606 611 0 +0 0 0 0 1 0 .061 -.912159196278266 0 .4
098360655737705 14 450 99 612 ?446 452 449 4 610 +0 0 446 452 20 51 611 401 0 45
2 610 613 0 +.0587877538267963 0 .03 0 -1 0 .005 -.522232967867096 0 -.852802865
42244 14 452 104 614 ?450 455 451 4 611 -0 0 450 455 20 50 613 402 0 455 611 615
 0 +.0556417109729742 0 .025 -1435827653286824e-31 0 1 1 0 1435827653286824e-31
 14 455 109 616 ?452 462 454 4 613 +0 0 452 462 20 51 615 403 0 462 613 617 0 +.
1125 0 .02 0 1 0 .005 .707106781186548 0 .707106781186548 14 462 114 618 ?455 46
5 461 4 615 +0 0 455 465 20 50 617 404 0 465 615 619 0 +.1175 0 .025 1 0 0 0 0 -
1 14 465 119 620 ?462 476 464 4 617 +0 0 462 476 20 51 619 405 0 476 617 621 0 +
.0587877538267963 0 -.03 0 -1 0 .005 -.522232967867094 0 .852802865422442 14 476
 124 622 ?465 479 475 4 619 -0 0 465 479 20 51 621 406 0 479 619 623 0 +0 0 0 0
 1 0 .061 .912159196278266 0 -.4098360655737705 14 479 131 624 ?476 468 478 4 62
1 +0 0 476 468 20 51 623 407 0 468 621 625 0 +.1125 0 -.02 0 1 0 .005 .707106781
186548 0 -.707106781186548 14 468 136 626 ?479 473 467 4 623 +0 0 479 473 20 50
 625 408 0 473 623 502 0 +.1175 0 -.025 717913826643412e-31 0 -1 -1 0 -717913826
643412e-31 14 473 141 627 ?468 485 472 4 625 +0 0 468 485 20 51 502 409 0 485 62
5 498 0 +-.0587877538267963 0 -.03 0 -1 0 .005 .522232967867094 0 .8528028654224
41 14 485 144 628 ?473 488 484 4 502 -0 0 473 488 20 81 1 628 472 416 485 629 0
 627 495 630 80 1 416 631 632 8015 0 0 0 0 3 5 0 0 0 FFFFTFFFFFFFFFFFF2 81 2 629
 471 631 485 633 628 634 635 636 637 81 1 627 469 416 473 634 0 626 628 638 81 1
 495 475 416 488 635 0 628 491 639 83 1 630 0 81 2 635 474 631 488 640 495 629 4
94 641 642 83 1 639 0 80 2 631 643 644 8014 0 0 0 0 3 5 0 0 0 FFFFTFFFFFFFFFFFF2
 1 81 1 640 473 645 488 0 635 633 646 647 81 2 494 477 631 490 646 491 635 648 6
49 650 83 4 641 0 0 .749019607843137 .749019607843137 82 1 642 0 81 1 646 476 64
5 490 0 494 640 651 652 81 2 648 480 631 492 651 496 494 653 654 655 83 4 649 0
 0 .749019607843137 .749019607843137 82 1 650 0 81 1 651 479 645 492 0 648 646 6
56 657 81 1 496 481 416 492 648 0 491 505 658 81 2 653 483 631 499 656 505 648 6
59 660 661 83 4 654 0 0 .749019607843137 .749019607843137 82 1 655 0 81 1 656 48
2 645 499 0 653 651 662 663 81 1 505 484 416 499 653 0 496 509 664 81 2 659 486
 631 506 662 509 653 665 666 667 83 4 660 0 0 .749019607843137 .749019607843137
 82 1 661 0 81 1 662 485 645 506 0 659 656 668 669 81 1 509 487 416 506 659 0 50
5 513 670 81 2 665 489 631 510 668 513 659 671 672 673 83 4 666 0 0 .74901960784
3137 .749019607843137 82 1 667 0 81 1 668 488 645 510 0 665 662 674 675 81 1 513
 490 416 510 665 0 509 517 676 81 2 671 492 631 514 674 517 665 677 678 679 83 4
 672 0 0 .749019607843137 .749019607843137 82 1 673 0 81 1 674 491 645 514 0 671
 668 680 681 81 1 517 493 416 514 671 0 513 521 682 81 2 677 495 631 518 680 521
 671 683 684 685 83 4 678 0 0 .749019607843137 .749019607843137 82 1 679 0 81 1
 680 494 645 518 0 677 674 686 687 81 1 521 496 416 518 677 0 517 525 688 81 2 6
83 498 631 522 686 525 677 689 690 691 83 4 684 0 0 .749019607843137 .7490196078
43137 82 1 685 0 81 1 686 497 645 522 0 683 680 692 693 81 1 525 499 416 522 683
 0 521 529 694 81 2 689 501 631 526 692 529 683 695 696 697 83 4 690 0 0 .749019
607843137 .749019607843137 82 1 691 0 81 1 692 500 645 526 0 689 686 698 699 81
 1 529 502 416 526 689 0 525 533 700 81 2 695 504 631 530 698 533 689 701 702 70
3 83 4 696 0 0 .749019607843137 .749019607843137 82 1 697 0 81 1 698 503 645 530
 0 695 692 704 705 81 1 533 505 416 530 695 0 529 537 706 81 2 701 507 631 534 7
04 537 695 541 707 708 83 4 702 0 0 .749019607843137 .749019607843137 82 1 703 0
 81 1 704 506 645 534 0 701 698 709 710 81 1 537 508 416 534 701 0 533 539 711 8
1 2 541 510 631 421 709 539 701 712 713 714 83 4 707 0 0 .749019607843137 .74901
9607843137 82 1 708 0 81 1 709 509 645 421 0 541 704 715 716 81 2 712 513 631 41
2 715 418 541 417 717 718 83 4 713 0 0 .749019607843137 .749019607843137 82 1 71
4 0 81 1 715 512 645 412 0 712 709 719 720 81 1 418 514 416 412 712 0 539 411 72
1 81 2 417 516 631 410 719 411 712 722 723 724 83 4 717 0 0 .749019607843137 .74
9019607843137 82 1 718 0 81 1 719 515 645 410 0 417 715 725 726 81 2 722 519 631
 413 725 419 417 727 728 729 83 4 723 0 0 .749019607843137 .749019607843137 82 1
 724 0 81 1 725 518 645 413 0 722 719 730 731 81 1 419 520 416 413 722 0 411 435
 732 81 2 727 522 631 424 730 435 722 434 733 734 83 4 728 0 0 .749019607843137
 .749019607843137 82 1 729 0 81 1 730 521 645 424 0 727 725 735 736 81 1 435 523
 416 424 727 0 419 431 737 81 2 434 525 631 429 735 431 727 430 738 739 83 4 733
 0 0 .749019607843137 .749019607843137 82 1 734 0 81 1 735 524 645 429 0 434 730
 740 741 81 2 430 528 631 15 740 428 434 0 742 743 83 4 738 0 0 .749019607843137
 .749019607843137 82 1 739 0 81 1 740 527 645 15 0 430 735 0 744 83 4 742 0 0 .7
49019607843137 .749019607843137 82 1 743 0 80 1 645 0 745 8001 0 0 0 0 3 5 0 0 0
 FFFFTFTFFFFFFFFFF2 83 3 744 .749019607843137 .749019607843137 .749019607843137
 79 15 745 SDL/TYSA_COLOUR83 3 741 .749019607843137 .749019607843137 .7490196078
43137 83 1 737 0 83 3 736 .749019607843137 .749019607843137 .749019607843137 83
 1 732 0 83 3 731 .749019607843137 .749019607843137 .749019607843137 83 3 726 .7
49019607843137 .749019607843137 .749019607843137 83 1 721 0 83 3 720 .7490196078
43137 .749019607843137 .749019607843137 83 3 716 .749019607843137 .7490196078431
37 .749019607843137 83 1 711 0 83 3 710 .749019607843137 .749019607843137 .74901
9607843137 83 1 706 0 83 3 705 .749019607843137 .749019607843137 .74901960784313
7 83 1 700 0 83 3 699 .749019607843137 .749019607843137 .749019607843137 83 1 69
4 0 83 3 693 .749019607843137 .749019607843137 .749019607843137 83 1 688 0 83 3
 687 .749019607843137 .749019607843137 .749019607843137 83 1 682 0 83 3 681 .749
019607843137 .749019607843137 .749019607843137 83 1 676 0 83 3 675 .749019607843
137 .749019607843137 .749019607843137 83 1 670 0 83 3 669 .749019607843137 .7490
19607843137 .749019607843137 83 1 664 0 83 3 663 .749019607843137 .7490196078431
37 .749019607843137 83 1 658 0 83 3 657 .749019607843137 .749019607843137 .74901
9607843137 83 3 652 .749019607843137 .749019607843137 .749019607843137 81 1 633
 470 645 485 0 629 746 640 747 83 3 647 .749019607843137 .749019607843137 .74901
9607843137 81 1 746 467 645 473 0 634 748 633 749 83 3 747 .749019607843137 .749
019607843137 .749019607843137 81 2 634 468 631 473 746 627 750 629 751 752 81 1
 748 464 645 468 0 750 753 746 754 83 3 749 .749019607843137 .749019607843137 .7
49019607843137 81 2 750 465 631 468 748 626 755 634 756 757 81 1 753 461 645 479
 0 755 758 748 759 83 3 754 .749019607843137 .749019607843137 .749019607843137 8
1 2 755 462 631 479 753 624 760 750 761 762 81 1 758 458 645 476 0 760 763 753 7
64 83 3 759 .749019607843137 .749019607843137 .749019607843137 81 2 760 459 631
 476 758 622 765 755 766 767 81 1 763 455 645 465 0 765 768 758 769 83 3 764 .74
9019607843137 .749019607843137 .749019607843137 81 2 765 456 631 465 763 620 770
 760 771 772 81 1 768 452 645 462 0 770 773 763 774 83 3 769 .749019607843137 .7
49019607843137 .749019607843137 81 2 770 453 631 462 768 618 775 765 776 777 81
 1 773 449 645 455 0 775 778 768 779 83 3 774 .749019607843137 .749019607843137
 .749019607843137 81 2 775 450 631 455 773 616 780 770 781 782 81 1 778 446 645
 452 0 780 783 773 784 83 3 779 .749019607843137 .749019607843137 .7490196078431
37 81 2 780 447 631 452 778 614 785 775 786 787 81 1 783 443 645 450 0 785 788 7
78 789 83 3 784 .749019607843137 .749019607843137 .749019607843137 81 2 785 444
 631 450 783 612 790 780 791 792 81 1 788 440 645 446 0 790 793 783 794 83 3 789
 .749019607843137 .749019607843137 .749019607843137 81 2 790 441 631 446 788 603
 601 785 795 796 81 1 793 437 645 442 0 601 797 788 798 83 3 794 .74901960784313
7 .749019607843137 .749019607843137 81 2 601 438 631 442 793 579 799 790 800 801
 81 1 797 434 645 216 0 799 802 793 803 83 3 798 .749019607843137 .7490196078431
37 .749019607843137 81 2 799 435 631 216 797 602 804 601 805 806 81 1 802 431 64
5 229 0 804 0 797 807 83 3 803 .749019607843137 .749019607843137 .74901960784313
7 14 229 3 808 ?0 216 227 4 609 +0 0 0 216 20 81 2 804 432 631 229 802 808 0 799
 809 810 83 3 807 .749019607843137 .749019607843137 .749019607843137 81 1 808 43
3 416 229 804 0 0 602 811 83 4 809 0 0 .749019607843137 .749019607843137 82 1 81
0 0 81 1 602 436 416 216 799 0 808 579 812 83 1 811 0 83 1 812 0 51 609 396 0 22
9 0 605 0 +-.1125 0 .02 0 1 0 .005 -.707106781186548 0 .707106781186548 83 4 805
 0 0 .749019607843137 .749019607843137 82 1 806 0 83 4 800 0 0 .749019607843137
 .749019607843137 82 1 801 0 81 1 603 442 416 446 790 0 579 612 813 83 4 795 0 0
 .749019607843137 .749019607843137 82 1 796 0 81 1 612 445 416 450 785 0 603 614
 814 83 1 813 0 81 1 614 448 416 452 780 0 612 616 815 83 1 814 0 81 1 616 451 4
16 455 775 0 614 618 816 83 1 815 0 81 1 618 454 416 462 770 0 616 620 817 83 1
 816 0 81 1 620 457 416 465 765 0 618 622 818 83 1 817 0 81 1 622 460 416 476 76
0 0 620 624 819 83 1 818 0 81 1 624 463 416 479 755 0 622 626 820 83 1 819 0 81
 1 626 466 416 468 750 0 624 627 821 83 1 820 0 83 1 821 0 83 4 791 0 0 .7490196
07843137 .749019607843137 82 1 792 0 83 4 786 0 0 .749019607843137 .749019607843
137 82 1 787 0 83 4 781 0 0 .749019607843137 .749019607843137 82 1 782 0 83 4 77
6 0 0 .749019607843137 .749019607843137 82 1 777 0 83 4 771 0 0 .749019607843137
 .749019607843137 82 1 772 0 83 4 766 0 0 .749019607843137 .749019607843137 82 1
 767 0 83 4 761 0 0 .749019607843137 .749019607843137 82 1 762 0 83 4 756 0 0 .7
49019607843137 .749019607843137 82 1 757 0 83 4 751 0 0 .749019607843137 .749019
607843137 82 1 752 0 79 21 644 SDL/TYSA_REFLECTIVITY83 1 638 0 83 4 636 0 0 .749
019607843137 .749019607843137 82 1 637 0 79 21 632 SDL/TYSA_TRANSLUCENCY17 607 0
 580 607 607 110 112 313 0 0 -15 608 88 0 115 442 822 17 115 0 608 115 115 113 8
23 311 0 823 +15 822 85 0 118 442 824 17 118 0 822 118 118 116 427 309 0 427 +15
 824 82 0 121 442 577 17 121 0 824 121 121 119 825 307 0 825 +17 825 0 422 825 8
25 119 121 307 0 0 -15 422 218 0 825 412 826 15 826 215 0 827 412 0 17 827 0 826
 827 827 33 37 402 0 0 -17 37 0 408 37 37 33 827 402 0 827 +15 408 250 0 37 15 5
46 17 427 0 414 427 427 116 118 309 0 0 -17 823 0 425 823 823 113 115 311 0 0 -1
5 425 228 0 823 413 828 15 828 225 0 30 413 0 17 30 0 828 30 30 24 27 31 0 0 -17
 112 0 437 112 112 110 607 313 0 607 +15 437 233 0 112 424 829 15 829 230 0 26 4
24 0 17 26 0 829 26 26 10 23 22 0 0 -83 1 604 0 83 1 542 0 83 1 497 0 17 184 0 4
84 254 85 182 480 353 0 257 +17 175 0 472 263 82 173 362 360 0 266 -17 157 0 449
 281 109 155 317 315 0 284 -83 1 436 0 83 1 432 0 83 1 420 0 19 16 254 0 1 0 8 4
 0 S0 74 20 14 6 0 0 830 12 740 430 428 2 0 0 0 0 0 0 0 0 0 0 0 0 0 0 81 1 830 4
29 831 1 0 12 0 0 832 81 1 12 430 833 1 830 2 0 0 834 80 1 833 416 835 8041 0 0
 0 0 3 5 0 0 0 TTTFFFFFFFFFFFFFF2 83 1 834 0 79 23 835 SDL/TYSA_TRANSLUCENCY_280
 1 831 645 836 8040 0 0 0 0 3 5 0 0 0 TTTFFFFFFFFFFFFFF2 83 3 832 .7490196078431
37 .749019607843137 .749019607843137 79 17 836 SDL/TYSA_COLOUR_280 1 11 837 838
 8017 0 0 0 0 0 0 0 0 0 TTTTTTTTTTTTTFTFT3 84 6 13 Solid179 13 838 SDL/TYSA_NAME
1 0 
